PathFileType	4	(X/Y/Z)	F:\MotionCapture\20160217\3\Generated_files\EMG_test02-Dynamic.trc
DataRate	CameraRate	NumFrames	NumMarkers	Units	OrigDataRate	OrigDataStartFrame	OrigNumFrames
120.00	120.00	       8	39	mm	120.00	340	       679
Frame#	Time	Top.Head			Front.Head			Rear.Head			R.Shoulder			R.Offset			R.Elbow			R.Wrist			L.Shoulder			L.Elbow			L.Wrist			R.ASIS			L.ASIS			V.Sacral			R.Thigh			R.Knee			R.Shank			R.Ankle			R.Heel			R.Toe			L.Thigh			L.Knee			L.Shank			L.Ankle			L.Heel			L.Toe			R1			R2			R3			R4			R5			R6			R7			L1			L2			L3			L4			L5			L6			L7			V_Mid_ASIS			V_Pelvis_Origin			V_R.Hip_JC			V_L.Hip_JC			V_R.Knee_JC			V_L.Knee_JC			V_R.Ankle_JC			V_L.Ankle_JC			V_Mid_Hip			V_Mid_Shoulder			V_R.Hand			V_L.Hand			V_R.Toe_Offset_Static			V_L.Toe_Offset_Static			V_R.Toe_Offset			V_L.Toe_Offset			
		X1	Y1	Z1	X2	Y2	Z2	X3	Y3	Z3	X4	Y4	Z4	X5	Y5	Z5	X6	Y6	Z6	X7	Y7	Z7	X8	Y8	Z8	X9	Y9	Z9	X10	Y10	Z10	X11	Y11	Z11	X12	Y12	Z12	X13	Y13	Z13	X14	Y14	Z14	X15	Y15	Z15	X16	Y16	Z16	X17	Y17	Z17	X18	Y18	Z18	X19	Y19	Z19	X20	Y20	Z20	X21	Y21	Z21	X22	Y22	Z22	X23	Y23	Z23	X24	Y24	Z24	X25	Y25	Z25	X26	Y26	Z26	X27	Y27	Z27	X28	Y28	Z28	X29	Y29	Z29	X30	Y30	Z30	X31	Y31	Z31	X32	Y32	Z32	X33	Y33	Z33	X34	Y34	Z34	X35	Y35	Z35	X36	Y36	Z36	X37	Y37	Z37	X38	Y38	Z38	X39	Y39	Z39	

340	2.825	566.83966	182.89189	1678.13770	454.13144	179.09070	1596.49158	674.52228	176.74965	1608.19202	626.76642	375.52789	1364.27295	754.24872	92.09824	1235.28748	756.96320	466.53467	1069.97791	745.96106	470.67346	804.95801	586.46594	-27.72851	1379.65125	490.67493	-158.02197	1087.93530	259.82285	-120.44638	981.36945	550.52277	285.28720	899.25720	573.00067	-6.48321	895.84698	783.76819	163.58647	899.67603	404.06424	243.29910	592.81427	418.93884	294.54642	470.04010	335.50369	229.20618	249.25591	318.62543	301.99420	76.66734	369.70764	239.04146	23.67934	182.65746	283.02515	104.46269	623.59277	32.64382	563.13678	784.17004	-6.71505	443.11237	838.38574	72.74722	310.90033	1044.62183	21.90623	121.83553	1105.13916	81.24302	140.09032	933.45776	27.84680	39.22247	145.16098	267.56027	128.97229	176.65312	247.30315	111.17051	266.83179	211.64182	82.25243	327.32373	209.14772	40.28904	342.34882	283.57233	35.56868	268.72424	311.46863	56.64138	213.28952	318.61200	83.30437	890.08398	52.04462	33.45577	918.26355	66.99952	42.42083	994.00092	110.28132	82.54806	1066.46289	111.98605	121.13741	1083.97327	40.49181	123.47641	1026.87964	10.62001	68.54517	972.98474	-1.38341	41.46057																																																	45.17891	124.03934	1436.32471	1481.59583	313.92752	711.62640	
341	2.833	553.26752	184.97324	1677.03552	440.93738	181.34825	1595.02014	660.86151	178.59366	1607.26514	613.14349	377.52942	1363.16687	740.10834	94.56789	1233.77612	743.23370	468.28345	1068.59351	732.43561	472.23291	803.27759	573.42712	-25.19789	1378.59167	477.23529	-156.32396	1086.94727	245.87985	-118.86591	981.77576	535.13556	287.11090	899.29938	556.93256	-4.46410	894.62634	768.39581	165.80576	897.82758	388.92416	245.41092	591.93726	403.57639	295.40909	467.49115	324.35358	227.98068	245.20634	311.16592	302.57687	74.48882	367.75134	240.50044	26.76887	171.84526	280.71188	88.42536	607.07782	32.12664	561.61060	768.49872	-7.29575	441.65668	825.21503	70.89771	310.57803	1038.51868	21.69441	128.12932	1095.79028	82.28835	148.93709	932.55371	27.65331	39.26492	132.54254	263.34106	108.61741	166.23810	247.37489	95.02059	259.75067	211.21266	76.44061	324.18851	208.77792	40.22395	338.56497	283.13345	36.52304	264.24655	310.86768	49.83170	203.82965	319.12302	69.84117	890.25909	52.33525	33.22887	917.42224	66.83884	42.28885	989.49780	109.27212	86.76579	1059.12610	111.76624	128.66971	1078.65479	39.91668	131.47171	1023.74701	10.48106	73.04308	971.88330	-0.91636	42.61892																																																	32.63555	126.18690	1435.61963	1466.20874	315.91217	711.13287	
342	2.842	539.34406	187.11185	1676.91113	426.63879	183.09120	1594.87231	647.34247	181.13681	1606.46326	599.13287	380.21854	1362.34766	725.96808	96.74400	1232.21191	728.90668	470.17352	1067.45337	717.85431	473.50244	802.05988	559.79840	-23.17414	1377.56165	464.45160	-154.47292	1086.44116	232.12585	-117.53600	982.00659	519.23663	288.75388	899.75067	541.31909	-2.67149	893.44312	752.85461	168.45131	896.09607	373.32172	247.40096	590.15277	388.91492	296.64771	465.62112	314.15359	227.49857	243.90678	303.72668	302.45163	74.88802	364.41068	240.67616	32.17691	165.20403	282.07858	77.34019	590.92810	31.53433	559.82336	752.32086	-8.90978	440.09851	813.59656	69.10953	309.79462	1031.06519	21.89073	134.83380	1087.50513	81.71409	158.83846	931.19507	27.48944	39.44352	126.13786	267.16071	95.54833	156.33752	245.99194	82.83791	251.88397	211.30034	70.40015	320.42007	208.82800	39.21093	335.01791	283.68353	37.74974	258.30399	310.94153	44.77352	198.44746	320.81940	59.69846	890.71564	52.48336	33.07809	917.71838	68.28282	41.42648	984.06451	108.45271	90.93601	1049.48499	110.45231	136.62466	1068.57568	42.05780	138.35066	1020.38739	10.41505	77.90170	970.85095	-0.97985	43.56228																																																	214.74323	-3.90093	777.91077	838.36841	49.30445	44.47056	20.56583	128.05156	1435.05969	1453.57642	318.44373	710.11865	
343	2.850	525.74323	189.28998	1677.21704	412.88232	184.94185	1595.23755	633.33258	183.48752	1606.90466	585.70117	382.51547	1361.95190	712.25610	99.22973	1231.23474	713.69647	471.92786	1066.20215	703.30988	474.98056	800.68042	546.45557	-21.01666	1376.88843	451.39725	-153.00302	1085.74585	219.51575	-116.09064	981.39874	504.21738	290.53732	900.08490	525.34912	-0.44766	892.53760	737.09052	171.20738	894.77240	358.80737	250.02249	588.81244	373.51215	298.10544	465.62973	304.82025	226.82823	243.53757	299.63971	303.17200	72.53486	362.86215	240.58904	35.45427	159.76855	282.74219	69.07441	572.27283	30.10500	559.01440	734.68597	-11.07304	439.21707	798.89471	67.08698	309.08826	1022.28857	21.45428	141.72159	1075.52771	82.74432	168.25500	929.96515	27.82054	39.22842	116.47250	264.04883	83.42484	152.09845	246.49275	74.99921	248.35345	210.69785	65.76053	317.34241	209.40007	39.22625	331.87097	284.87015	37.76847	255.06299	311.97495	42.44794	194.66077	320.77731	53.78159	890.73590	52.62734	33.16399	914.79413	68.99302	41.69051	976.67792	107.71492	95.70155	1040.30396	110.83557	144.91280	1059.29407	42.45282	146.65761	1014.96027	10.65115	83.77275	968.01050	-0.02826	45.58264																																																	6.74032	129.54724	1435.04309	
344	2.858	511.72720	191.51198	1677.78625	398.94305	186.96423	1595.82019	619.41656	185.69661	1607.47241	571.52307	384.88754	1361.89661	698.04156	101.78554	1230.46680	698.99225	473.76974	1065.28137	688.53723	476.88937	799.85236	533.22614	-19.12083	1376.71558	438.82602	-151.18803	1085.08740	207.60843	-115.06893	980.50494	488.63901	292.62885	901.10608	509.21866	2.01060	891.73944	721.86731	173.36719	894.50812	343.54996	253.28986	588.28473	357.15341	298.55197	469.25330	296.08264	226.93752	243.10033	294.85754	303.67960	71.83414	361.45328	241.63699	36.10142	155.58080	280.08258	60.63039	553.63354	28.41885	558.14368	716.65485	-12.73150	438.07300	782.70374	64.72751	308.72607	1011.90247	21.69172	148.56873	1063.14929	83.06030	178.11995	926.49469	28.09133	39.45712	110.43561	261.96921	71.78597	147.02917	244.96436	66.11105	245.08078	211.28149	63.35337	315.34634	209.98703	39.34337	329.30457	285.48065	38.06603	253.60600	310.43509	39.98918	189.96645	318.26199	47.47190	889.18292	55.17503	35.02401	912.44128	70.07672	41.18742	967.48352	107.20201	100.28516	1027.85486	110.91934	153.30232	1048.13965	42.77110	155.85698	1008.10095	10.98321	89.89346	960.74670	0.22815	49.38958																																																	1275.68054	121.70026	288.04242	
345	2.867	497.92920	193.54245	1678.28198	385.41360	188.79445	1596.26990	605.97083	188.02818	1608.53418	557.10754	387.47510	1362.01245	684.11719	104.11687	1230.50439	683.09180	475.82944	1064.66162	672.54370	478.16245	799.04376	520.16931	-17.53857	1377.22424	426.97061	-149.29024	1084.68677	196.34525	-114.00150	979.05432	473.63361	294.89648	902.27344	492.91779	5.13398	891.42200	706.58490	175.27231	894.42633	327.15912	255.07123	591.00781	340.85056	298.39587	473.35974	288.62827	227.50157	242.27815	291.61337	304.22073	71.25226	358.41928	243.75055	36.50670	151.88344	279.60980	51.86204	533.46893	26.31268	557.99377	697.44806	-14.32690	437.15903	765.88232	62.34893	308.40164	1000.16058	21.60939	154.85617	1047.69385	84.27962	187.97115	924.99261	28.49350	39.18544	108.50292	263.92795	60.85231	145.06754	243.91516	57.65728	242.91901	211.78706	59.99234	314.12839	210.94797	39.66653	327.89133	286.09506	38.72582	250.78899	310.54626	37.05117	187.39796	318.38815	40.87203	882.41205	57.25969	37.92092	910.22949	70.17332	41.09940	956.65070	106.91727	103.98207	1012.88483	111.25294	161.08858	1035.44458	43.69189	164.53156	1000.19507	10.80519	95.92404	959.39221	0.40421	50.82376																																																	1259.38257	120.95415	292.42978	
346	2.875	484.90598	196.08618	1679.22156	372.02112	190.94243	1597.25110	592.36090	190.17850	1609.37122	544.19672	389.44324	1363.12158	670.05341	106.02640	1230.92493	666.64777	477.53595	1064.38489	656.09747	479.93301	798.84351	506.99603	-16.08798	1377.55334	415.69156	-147.54713	1084.31470	186.19348	-113.40264	977.22760	459.24704	296.94302	903.89502	477.45999	8.03213	891.41333	691.65662	177.02000	895.13428	312.27377	255.54344	595.12653	325.33368	298.66876	475.67789	280.84186	227.49182	241.27422	288.89334	304.30255	70.39249	358.18723	244.11613	39.30893	149.24763	279.55673	47.10971	514.23651	24.48939	558.11212	676.29626	-15.97603	435.82422	746.66522	60.12029	308.20822	986.84473	22.34576	162.46326	1031.44751	85.71764	198.40793	920.98578	29.36687	40.59999	104.80647	261.05417	52.64862	141.82961	243.28444	51.15573	239.94737	211.24423	57.29528	312.63434	210.74940	39.32919	325.17740	286.44012	38.92471	249.38266	312.35672	34.44473	184.70528	321.72418	38.23137	880.79639	58.19601	38.62815	906.95966	69.75267	41.50735	945.42548	106.73261	108.63208	997.27582	111.98921	169.75452	1021.60297	44.93002	174.17552	990.91595	11.18978	103.58887	954.05835	1.04412	54.35123																																																	1241.24561	120.52315	296.47400	
347	2.883	471.31610	198.28125	1680.05066	358.75006	192.68190	1598.03174	579.11218	192.35713	1610.19763	530.56262	391.42239	1364.25952	656.21198	108.05517	1231.40906	650.14044	479.21866	1064.29688	639.31488	481.61136	799.05255	493.32281	-14.49095	1378.53296	404.62030	-145.75046	1084.37573	175.80566	-112.58730	975.24689	444.98199	299.62402	905.71570	462.82129	10.75413	891.53510	676.29285	178.04829	895.74738	297.84018	256.88837	598.73029	311.51883	299.92462	475.29123	273.09421	227.70047	240.22334	285.75031	303.26834	69.84785	356.63849	244.28264	40.62290	146.32082	281.06589	44.26741	493.48630	23.24357	557.90149	655.12787	-17.85664	435.19781	726.84265	58.09116	307.76202	973.10205	23.22701	171.52722	1014.23621	87.19857	210.00215	915.78418	29.53076	44.49219	101.42300	261.43375	47.83001	139.21585	244.50490	47.65943	237.23479	210.73206	54.74171	310.81763	210.09888	38.69797	323.90622	285.81815	39.61174	249.08495	312.62845	34.27916	184.55800	324.89322	36.64311	884.33301	52.36333	33.98408	902.63367	68.68568	43.97764	933.06244	106.69223	114.81526	982.21466	113.46677	180.01266	1007.13629	46.30428	185.50565	980.55048	11.35267	113.46404	948.65588	2.56583	59.91307	
